<svg width="800" height="800" viewBox="0 0 32 32" xmlns="http://www.w3.org/2000/svg"><title>android</title><path fill="currentColor" d="m23.35 12.653 2.496-4.323a.519.519 0 0 0-.897-.522l-.001.002-2.527 4.377c-1.887-.867-4.094-1.373-6.419-1.373s-4.532.506-6.517 1.413l.098-.04-2.527-4.378a.519.519 0 1 0-.898.521l-.001-.002 2.496 4.323c-4.286 2.367-7.236 6.697-7.643 11.744l-.003.052h29.991a14.76 14.76 0 0 0-7.57-11.758l-.076-.038zM9.098 20.176a1.249 1.249 0 1 1 1.249-1.249 1.25 1.25 0 0 1-1.249 1.249m13.804 0a1.249 1.249 0 1 1 1.249-1.249 1.25 1.25 0 0 1-1.249 1.249"/></svg>