<svg xmlns="http://www.w3.org/2000/svg" viewBox="0 0 24 24" fill="none">
  <path d="M21.6 12.22c0-.66-.06-1.3-.17-1.92H12v3.63h5.39a4.61 4.61 0 0 1-2 3.03v2.51h3.23c1.89-1.74 2.98-4.31 2.98-7.25Z" fill="#4285F4"/>
  <path d="M12 22c2.7 0 4.96-.9 6.61-2.43l-3.23-2.51c-.9.6-2.04.95-3.38.95-2.6 0-4.8-1.76-5.58-4.12H3.08v2.58A9.99 9.99 0 0 0 12 22Z" fill="#34A853"/>
  <path d="M6.42 13.89a5.98 5.98 0 0 1 0-3.78V7.53H3.08a10 10 0 0 0 0 8.94l3.34-2.58Z" fill="#FBBC05"/>
  <path d="M12 6.01c1.47 0 2.8.5 3.84 1.48l2.88-2.88C16.95 2.97 14.7 2 12 2A10 10 0 0 0 3.08 7.53l3.34 2.58C7.2 7.77 9.4 6.01 12 6.01Z" fill="#EA4335"/>
</svg>
