<svg width="800" height="800" viewBox="0 0 20 20" xmlns="http://www.w3.org/2000/svg"><path fill="#currentColor" d="M8.73 4.706q-.046.106-.09.106-.051.01-.052-.056 0-.134.2-.168h.105a.19.19 0 0 0-.163.118m.957-.034a.17.17 0 0 0-.184-.05q.252-.123.336.022.031.067-.031.1-.043.012-.121-.072M6.054 9.543a1 1 0 0 0-.047.14.7.7 0 0 1-.058.15 1 1 0 0 1-.105.146q-.073.111-.01.134.042.01.131-.079a.56.56 0 0 0 .153-.279.4.4 0 0 1 .021-.067.3.3 0 0 0 .021-.095v-.034l-.01-.027q-.01-.029-.032-.023-.042-.01-.064.034m8.474 3.504.079-.307q.036-.138.052-.29.015-.15.032-.24.015-.089.005-.25a4 4 0 0 1-.01-.218q0-.056-.037-.245l-.042-.23a9 9 0 0 0-.053-.278l-.057-.296q-.105-.535-.495-1.15-.389-.614-.757-.836.253.222.6.926.915 1.808.567 3.102-.115.447-.525.469-.327.045-.405-.206-.079-.252-.084-.932a5.7 5.7 0 0 0-.121-1.194 8 8 0 0 0-.205-.77 3 3 0 0 0-.205-.508 3 3 0 0 0-.163-.274 1 1 0 0 0-.136-.167l-.079-.078a7.5 7.5 0 0 0-.326-1.15q-.178-.457-.31-.625a3 3 0 0 1-.247-.368 1.4 1.4 0 0 1-.158-.446q-.042-.234.063-.597t.048-.553-.468-.279a2 2 0 0 1-.468-.2q-.31-.168-.373-.18-.084-.01-.116-.29a1.2 1.2 0 0 1 .084-.568q.116-.29.379-.302.389-.033.536.335.147.369.042.648-.115.212-.021.295.095.084.315.006.137-.045.137-.402v-.413a2.6 2.6 0 0 0-.142-.557.9.9 0 0 0-.468-.508 1.4 1.4 0 0 0-.284-.084q-1.124.09-.935 1.495 0 .168-.01.168-.096-.1-.31-.117a1.5 1.5 0 0 0-.348.005q-.13.023-.162-.055.01-.637-.169-1.005-.178-.368-.473-.38-.283-.01-.436.307-.153.319-.174.664-.01.168.037.413.048.245.137.419.09.172.163.15a.3.3 0 0 0 .168-.156q.042-.1-.074-.09-.074 0-.163-.161a.85.85 0 0 1-.1-.374.7.7 0 0 1 .095-.413q.105-.168.357-.156.18 0 .284.234.105.234.1.435a2 2 0 0 1-.015.246q-.232.167-.326.323a.9.9 0 0 1-.29.262 4 4 0 0 0-.215.14.65.65 0 0 0-.163.301q-.026.146.079.201.147.09.263.218.115.128.168.212t.194.145.373.072q.494.023 1.073-.167a3 3 0 0 1 .242-.078q.22-.067.362-.117t.31-.145a.54.54 0 0 0 .221-.196q.095-.156.21-.089a.15.15 0 0 1 .069.095q.015.061-.032.134-.048.072-.173.106-.21.067-.595.24l-.478.217q-.462.213-.736.257-.263.056-.83-.022-.105-.023-.095.022.01.044.178.212.263.257.705.246a1.5 1.5 0 0 0 .378-.079 3 3 0 0 0 .379-.156q.178-.09.352-.195t.316-.19q.141-.083.257-.134.117-.05.184-.028.069.023.09.123a.1.1 0 0 1-.01.05.14.14 0 0 1-.043.056.8.8 0 0 1-.152.106 1 1 0 0 1-.095.05q-.037.018-.105.056a1 1 0 0 1-.1.05 4.7 4.7 0 0 0-.71.492q-.415.335-.698.48-.284.145-.515.01-.221-.122-.663-.814-.231-.345-.263-.245a.4.4 0 0 0-.01.111q0 .279-.158.63-.157.353-.31.62a2 2 0 0 0-.22.648 1 1 0 0 0 .12.703q-.242.067-.657 1.004t-.5 1.574a8 8 0 0 0-.015.77q.005.568-.058.658-.084.268-.305.034-.336-.346-.378-1.05-.021-.312.042-.624.041-.213-.01-.201l-.043.056q-.378.724.105 1.852.053.134.263.312.21.18.252.223.21.258 1.094 1.01.883.753.977.854a.63.63 0 0 1 .185.424.72.72 0 0 1-.148.48.64.64 0 0 1-.478.257q.083.167.305.497.22.33.294.602.074.273.074.787.483-.268.073-1.027a1 1 0 0 0-.11-.179l-.1-.133q-.031-.045-.021-.068.03-.055.136-.106.105-.05.21.028.484.58 1.746.402 1.398-.167 1.86-.971.242-.424.358-.335.127.067.105.58-.01.279-.242 1.027-.095.256-.063.419.03.161.252.172.031-.211.153-.859.12-.647.142-1.004.02-.235-.069-.82a6.3 6.3 0 0 1-.078-1.083q.01-.496.241-.787.158-.2.537-.2.01-.414.362-.592a1.24 1.24 0 0 1 .763-.117q.41.06.63.25 0-.2-.578-.468m-6.05-9.095q-.059-.146-.121-.167-.095-.023-.095.078.021.056.053.067.105 0 .073.167-.031.225.085.224.03 0 .031-.034a.6.6 0 0 0-.026-.335m4.363 2.405a.3.3 0 0 0-.137-.056.4.4 0 0 1-.152-.06.5.5 0 0 1-.1-.09 3 3 0 0 1-.132-.162.2.2 0 0 0-.042-.045q-.01-.005-.042.017-.147.18.074.485.22.307.41.352.095.01.152-.09a.32.32 0 0 0 .037-.223.23.23 0 0 0-.068-.128M11.038 4.11a.44.44 0 0 0-.053-.218.4.4 0 0 0-.115-.14q-.064-.044-.095-.033-.147.01-.074.078l.042.023q.148.045.19.346 0 .033.084-.023zm.541-2.656a.4.4 0 0 0-.094-.079l-.1-.067q-.159-.167-.253-.167-.095.01-.12.083a.26.26 0 0 0-.01.145.3.3 0 0 1-.006.14.4.4 0 0 1-.064.117.6.6 0 0 0-.063.1q-.01.028.032.096.042.033.084 0 .042-.034.116-.1a.5.5 0 0 1 .157-.101q.01-.012.095-.011a.5.5 0 0 0 .158-.023q.073-.022.094-.078 0-.022-.026-.055m6.293 15.294q.116.14.126.268a.7.7 0 0 1-.027.25.6.6 0 0 1-.162.246 3 3 0 0 1-.247.218q-.12.095-.316.206a14 14 0 0 1-.667.357q-.2.1-.284.145a5.5 5.5 0 0 0-.9.625q-.498.413-.793.714-.178.18-.715.218t-.935-.162a.9.9 0 0 1-.31-.262 1.5 1.5 0 0 1-.174-.285q-.053-.123-.231-.217-.18-.095-.494-.106a62 62 0 0 0-1.367-.011q-.2 0-.6.016-.399.017-.61.028a2.3 2.3 0 0 0-.835.168 1.9 1.9 0 0 0-.563.335 2 2 0 0 1-.457.318 1.1 1.1 0 0 1-.562.128q-.304-.011-1.167-.346a10.3 10.3 0 0 0-2.072-.586q-.337-.061-.525-.1a5 5 0 0 1-.415-.106 1.1 1.1 0 0 1-.353-.162.54.54 0 0 1-.178-.218q-.106-.256.074-.742.179-.485.189-.608a1.8 1.8 0 0 0-.042-.446 9 9 0 0 0-.105-.475 1.5 1.5 0 0 1-.048-.407q.006-.2.11-.301.15-.135.6-.157.452-.023.63-.134.316-.201.443-.39.126-.19.126-.57.22.815-.337 1.183-.336.223-.872.168-.358-.035-.453.111-.135.168.053.636.021.067.084.201t.09.201a1 1 0 0 1 .047.19 1 1 0 0 1 .01.245q0 .168-.178.547-.179.379-.148.536.031.19.39.29.21.066.888.206t1.046.229q.252.067.778.245.526.179.867.257.342.078.583.045.453-.068.679-.313a.85.85 0 0 0 .242-.536 2.2 2.2 0 0 0-.08-.652 3.3 3.3 0 0 0-.199-.58 8 8 0 0 0-.21-.408q-1.272-2.12-1.777-2.701-.714-.826-1.188-.446-.116.1-.158-.168a2 2 0 0 1-.02-.424q.01-.323.104-.58t.253-.525.23-.468q.085-.235.28-.804.193-.57.31-.87.115-.301.315-.68.2-.381.41-.603Q7.21 7.132 7.36 6.55q-.126-1.25-.169-3.46-.021-1.003.253-1.69Q7.717.715 8.557.235 8.967.001 9.65.001q.557-.011 1.115.15.557.162.935.464.6.468.962 1.356.363.886.31 1.645-.053 1.06.316 2.389.357 1.26 1.398 2.432.578.66 1.046 1.82t.625 2.131q.084.547.053.943t-.126.62q-.094.222-.21.245-.105.022-.248.212-.141.189-.284.396a1.3 1.3 0 0 1-.425.374q-.284.167-.642.156a1.4 1.4 0 0 1-.33-.056.5.5 0 0 1-.237-.15 2 2 0 0 1-.142-.173 1.5 1.5 0 0 1-.12-.229q-.075-.162-.095-.217-.232-.413-.431-.335-.2.077-.295.546t.074 1.083q.21.78.01 2.176-.105.725.19 1.122.294.396.767.368.473-.03.894-.396.62-.547.94-.742.321-.195 1.089-.475.556-.201.809-.407.252-.207.194-.385a.63.63 0 0 0-.262-.318 2.5 2.5 0 0 0-.542-.262q-.346-.123-.52-.536a1.9 1.9 0 0 1-.158-.81q.016-.395.163-.53a2.9 2.9 0 0 0 .237 1.084q.078.167.215.318.137.15.22.212.085.061.227.145t.174.106q.21.134.326.274"/></svg>